<svg width="1200" height="720" viewBox="0 0 1200 720" fill="none" xmlns="http://www.w3.org/2000/svg">
  <rect width="1200" height="720" rx="40" fill="#FBF8F2"/>
  <rect x="60" y="60" width="1080" height="600" rx="28" fill="white" stroke="#D8D2C6"/>
  <rect x="120" y="120" width="250" height="140" rx="24" fill="#F4F8F8" stroke="#D6E4E1"/>
  <rect x="395" y="120" width="250" height="140" rx="24" fill="#F4F8F8" stroke="#D6E4E1"/>
  <rect x="670" y="120" width="250" height="140" rx="24" fill="#F4F8F8" stroke="#D6E4E1"/>
  <text x="150" y="165" fill="#5D675F" font-family="Manrope, sans-serif" font-size="20">Value index</text>
  <text x="150" y="220" fill="#1A221C" font-family="Newsreader, serif" font-size="46" font-weight="600">72.4</text>
  <text x="425" y="165" fill="#5D675F" font-family="Manrope, sans-serif" font-size="20">Churn watch</text>
  <text x="425" y="220" fill="#1A221C" font-family="Newsreader, serif" font-size="46" font-weight="600">Stable</text>
  <text x="700" y="165" fill="#5D675F" font-family="Manrope, sans-serif" font-size="20">Brand heat</text>
  <text x="700" y="220" fill="#1A221C" font-family="Newsreader, serif" font-size="46" font-weight="600">+4.8</text>
  <rect x="120" y="310" width="800" height="270" rx="24" fill="#FBF8F2" stroke="#E2DBCF"/>
  <path d="M180 520H860" stroke="#D7D0C4" stroke-width="2"/>
  <path d="M180 370H860" stroke="#E7E1D6" stroke-width="1.5" stroke-dasharray="8 8"/>
  <path d="M180 445H860" stroke="#E7E1D6" stroke-width="1.5" stroke-dasharray="8 8"/>
  <path d="M180 500C240 480 290 450 340 438C400 423 450 452 510 430C560 411 615 345 680 342C760 339 798 362 860 326" stroke="#2A7D7F" stroke-width="6" stroke-linecap="round"/>
  <circle cx="340" cy="438" r="8" fill="#2A7D7F"/>
  <circle cx="510" cy="430" r="8" fill="#2A7D7F"/>
  <circle cx="680" cy="342" r="8" fill="#2A7D7F"/>
  <rect x="950" y="310" width="150" height="270" rx="24" fill="#F4F8F8" stroke="#D6E4E1"/>
  <text x="980" y="360" fill="#5D675F" font-family="Manrope, sans-serif" font-size="18">Watchlist</text>
  <text x="980" y="415" fill="#1A221C" font-family="Manrope, sans-serif" font-size="22" font-weight="700">Price-value</text>
  <text x="980" y="448" fill="#1A221C" font-family="Manrope, sans-serif" font-size="22" font-weight="700">Discovery</text>
  <text x="980" y="481" fill="#1A221C" font-family="Manrope, sans-serif" font-size="22" font-weight="700">Local titles</text>
</svg>
